<svg width="80" height="80" viewBox="0 0 80 80" fill="none" xmlns="http://www.w3.org/2000/svg">
<circle cx="40" cy="40" r="39" fill="white" stroke="#C4C4C4" stroke-width="2"/>
<path fill-rule="evenodd" clip-rule="evenodd" d="M63.1245 48.3425C62.13 48.3425 61.3165 47.5285 61.3165 46.5345V43.37C61.3165 33.6065 54.8075 24.928 45.948 22.1255V21.131C45.948 20.227 45.134 19.4135 44.2305 19.4135H35.009C34.105 19.4135 33.2915 20.227 33.2915 21.131V22.1255C24.432 24.8375 17.923 33.1545 17.923 42.918V46.5345C17.923 47.5285 17.1095 48.3425 16.115 48.3425H14.307V53.7665H64.9325V48.3425H63.1245Z" fill="#F4BA48"/>
<path fill-rule="evenodd" clip-rule="evenodd" d="M54.9885 49.2464H24.2515C23.709 49.2464 23.347 48.8849 23.347 48.3424C23.347 47.7999 23.709 47.4384 24.2515 47.4384H54.988C55.5305 47.4384 55.892 47.7999 55.892 48.3424C55.892 48.8849 55.5305 49.2464 54.9885 49.2464Z" fill="#B58024"/>
<path fill-rule="evenodd" clip-rule="evenodd" d="M45.948 27.5496C45.4055 27.5496 45.044 27.188 45.044 26.6455V23.0295C45.044 22.487 45.4055 22.1255 45.948 22.1255C46.4905 22.1255 46.852 22.487 46.852 23.0295V26.6455C46.852 27.188 46.4905 27.5496 45.948 27.5496Z" fill="#B58024"/>
<path fill-rule="evenodd" clip-rule="evenodd" d="M33.2916 27.5496C32.7491 27.5496 32.3876 27.188 32.3876 26.6455V23.0295C32.3876 22.487 32.7491 22.1255 33.2916 22.1255C33.8341 22.1255 34.1956 22.487 34.1956 23.0295V26.6455C34.1956 27.188 33.8341 27.5496 33.2916 27.5496Z" fill="#B58024"/>
<path fill-rule="evenodd" clip-rule="evenodd" d="M39.6201 32.07C39.0776 32.07 38.7156 31.7085 38.7156 31.166V20.3175C38.7156 19.775 39.0776 19.4135 39.6201 19.4135C40.1621 19.4135 40.5241 19.775 40.5241 20.3175V31.166C40.5241 31.618 40.1621 32.07 39.6201 32.07Z" fill="#B58024"/>
<path fill-rule="evenodd" clip-rule="evenodd" d="M51.1011 24.657L47.7561 34.782L57.7906 31.437C56.0731 28.725 53.8131 26.3745 51.1011 24.657Z" fill="#B58024"/>
<path fill-rule="evenodd" clip-rule="evenodd" d="M28.1385 24.657L31.4835 34.782L21.449 31.437C23.1665 28.725 25.4265 26.3745 28.1385 24.657Z" fill="#B58024"/>
</svg>
