<svg width="80" height="80" viewBox="0 0 80 80" fill="none" xmlns="http://www.w3.org/2000/svg">
<circle cx="40" cy="40" r="39" fill="white" stroke="#C4C4C4" stroke-width="2"/>
<path d="M44.5945 31.8042C45.4405 31.8042 46.105 31.1397 46.105 30.2937V24.2517L34.0205 24.2517V30.2937C34.0205 31.1397 34.685 31.8042 35.531 31.8042L44.5945 31.8042Z" fill="#A8AFF1" stroke="#F3D55B" stroke-width="1e-05"/>
<path d="M46.1049 24.2517V30.2937C46.1049 31.1397 45.4404 31.8042 44.5944 31.8042H40.0629V24.2517H46.1049Z" fill="#97A1ED" stroke="#F3D55B" stroke-width="1e-05"/>
<path d="M24.9574 40.8675C24.9574 41.2905 24.7409 41.6681 24.4187 41.94C24.0964 42.2119 23.6684 42.378 23.2454 42.378H17.2035V39.357H23.2454C23.6684 39.357 24.0964 39.5231 24.4187 39.795C24.7409 40.0669 24.9574 40.4445 24.9574 40.8675Z" fill="#003A92" stroke="#F3D55B" stroke-width="1e-05"/>
<path d="M16.8988 49.9C16.9972 49.9201 17.0991 49.9306 17.2035 49.9306C18.0385 49.9306 18.714 49.2551 18.714 48.4201V33.3146C18.714 32.4796 18.0385 31.8041 17.2035 31.8041C16.3685 31.8041 15.693 32.4801 15.693 33.3146L16.8988 49.9ZM16.8988 49.9C16.8004 49.8799 16.7056 49.8502 16.6152 49.812M16.8988 49.9L16.6152 49.812M16.6152 49.812C16.3441 49.6975 16.1135 49.5061 15.9507 49.265M16.6152 49.812L15.9507 49.265M15.9507 49.265C15.8965 49.1847 15.8498 49.0988 15.8116 49.0084M15.9507 49.265L15.8116 49.0084M15.8116 49.0084C15.7352 48.8277 15.693 48.6289 15.693 48.4201L15.8116 49.0084Z" fill="#0050B2" stroke="#F3D55B" stroke-width="1e-05"/>
<path d="M22.9408 49.9C23.0392 49.9201 23.1411 49.9306 23.2455 49.9306L29.489 49.9306C30.324 49.9306 30.9995 49.2551 30.9995 48.4201V33.3146C30.9995 32.7928 30.7356 32.3332 30.3339 32.0619C30.33 32.0593 30.3261 32.0567 30.3222 32.0541C30.0835 31.8961 29.7971 31.8041 29.489 31.8041H23.2455C22.4105 31.8041 21.735 32.4801 21.735 33.3146L22.9408 49.9ZM22.9408 49.9C22.8425 49.8799 22.7476 49.8502 22.6572 49.812M22.9408 49.9L22.6572 49.812M22.6572 49.812C22.3861 49.6975 22.1555 49.5061 21.9928 49.265M22.6572 49.812L21.9928 49.265M21.9928 49.265C21.9385 49.1847 21.8918 49.0988 21.8536 49.0084M21.9928 49.265L21.8536 49.0084M21.8536 49.0084C21.7772 48.8277 21.735 48.6289 21.735 48.4201L21.8536 49.0084Z" fill="#0050B2" stroke="#F3D55B" stroke-width="1e-05"/>
<path d="M53.6575 49.9306L59.6995 49.9306C60.5345 49.9306 61.21 49.2551 61.21 48.4201V36.3356C61.21 35.8141 60.9461 35.3544 60.5444 35.083C60.5404 35.0804 60.5365 35.0778 60.5325 35.0751C60.2938 34.9171 60.0075 34.8251 59.6995 34.8251H53.6575C52.8225 34.8251 52.147 35.5011 52.147 36.3356V48.4201C52.147 48.7333 52.242 49.024 52.4048 49.265C52.676 49.6668 53.1356 49.9306 53.6575 49.9306Z" fill="#97A1ED" stroke="#F3D55B" stroke-width="1e-05"/>
<mask id="path-8-inside-1" fill="white">
<path fill-rule="evenodd" clip-rule="evenodd" d="M53.6575 31.804H51.271L48.673 29.2365C48.401 28.934 48.008 28.783 47.6155 28.783H32.51C32.1175 28.783 31.7245 28.934 31.453 29.2365L28.915 31.774V49.9605L34.474 55.519C34.7455 55.8215 35.1385 55.9725 35.531 55.9725H50.6365C51.2105 55.9725 51.724 55.64 51.996 55.1265L55.017 49.0845C55.1075 48.873 55.168 48.6615 55.168 48.42V33.3145C55.168 32.4685 54.5035 31.804 53.6575 31.804Z"/>
</mask>
<path fill-rule="evenodd" clip-rule="evenodd" d="M53.6575 31.804H51.271L48.673 29.2365C48.401 28.934 48.008 28.783 47.6155 28.783H32.51C32.1175 28.783 31.7245 28.934 31.453 29.2365L28.915 31.774V49.9605L34.474 55.519C34.7455 55.8215 35.1385 55.9725 35.531 55.9725H50.6365C51.2105 55.9725 51.724 55.64 51.996 55.1265L55.017 49.0845C55.1075 48.873 55.168 48.6615 55.168 48.42V33.3145C55.168 32.4685 54.5035 31.804 53.6575 31.804Z" fill="#E1E4FB"/>
<path d="M51.271 31.804L51.271 31.804H51.271V31.804ZM48.673 29.2365L48.673 29.2365V29.2365L48.673 29.2365ZM31.453 29.2365L31.453 29.2365L31.453 29.2365L31.453 29.2365ZM28.915 31.774L28.915 31.7739V31.774H28.915ZM28.915 49.9605H28.915L28.915 49.9605L28.915 49.9605ZM34.474 55.519L34.474 55.519H34.474L34.474 55.519ZM51.996 55.1265L51.996 55.1265L51.996 55.1265ZM55.017 49.0845L55.017 49.0845L55.017 49.0845ZM53.6575 31.8039H51.271V31.804H53.6575V31.8039ZM51.271 31.804L48.673 29.2365L48.673 29.2365L51.271 31.804L51.271 31.804ZM48.673 29.2365C48.401 28.9339 48.008 28.7829 47.6155 28.7829V28.783C48.008 28.783 48.401 28.934 48.673 29.2365L48.673 29.2365ZM47.6155 28.7829H32.51V28.783H47.6155V28.7829ZM32.51 28.7829C32.1175 28.7829 31.7245 28.9339 31.453 29.2365L31.453 29.2365C31.7245 28.934 32.1175 28.783 32.51 28.783V28.7829ZM31.453 29.2365L28.915 31.774L28.915 31.774L31.453 29.2365L31.453 29.2365ZM28.915 31.774V49.9605H28.915V31.774H28.915ZM28.915 49.9605L34.474 55.519L34.474 55.519L28.915 49.9605L28.915 49.9605ZM34.474 55.519C34.7455 55.8215 35.1385 55.9725 35.531 55.9725V55.9725C35.1385 55.9725 34.7455 55.8215 34.474 55.519L34.474 55.519ZM35.531 55.9725H50.6365V55.9725H35.531V55.9725ZM50.6365 55.9725C51.2105 55.9725 51.724 55.64 51.996 55.1265L51.996 55.1265C51.724 55.64 51.2105 55.9725 50.6365 55.9725V55.9725ZM51.996 55.1265L55.017 49.0845L55.017 49.0845L51.996 55.1265L51.996 55.1265ZM55.017 49.0845C55.1075 48.873 55.168 48.6615 55.168 48.42H55.168C55.168 48.6615 55.1075 48.873 55.017 49.0845L55.017 49.0845ZM55.168 48.42V33.3145H55.168V48.42H55.168ZM55.168 33.3145C55.168 32.4685 54.5035 31.8039 53.6575 31.8039V31.804C54.5035 31.804 55.168 32.4685 55.168 33.3145H55.168Z" fill="#F3D55B" mask="url(#path-8-inside-1)"/>
<path d="M59.3949 52.9207C59.4932 52.9408 59.5951 52.9514 59.6995 52.9514C63.0247 52.9514 65.8532 50.7927 66.8596 47.8039C67.114 47.0481 67.252 46.2393 67.252 45.3989V39.3569C67.252 38.3158 67.0403 37.3231 66.6578 36.4198C66.5223 36.1001 66.3655 35.7915 66.189 35.4959C64.87 33.2866 62.4553 31.8039 59.6995 31.8039C58.8645 31.8039 58.189 32.4799 58.189 33.3144L59.3949 52.9207ZM59.3949 52.9207C59.2965 52.9006 59.2016 52.871 59.1112 52.8328M59.3949 52.9207L59.1112 52.8328M59.1112 52.8328C58.8401 52.7182 58.6095 52.5268 58.4468 52.2858M59.1112 52.8328L58.4468 52.2858M58.4468 52.2858C58.3925 52.2054 58.3458 52.1195 58.3076 52.0292M58.4468 52.2858L58.3076 52.0292M58.3076 52.0292C58.2312 51.8484 58.189 51.6496 58.189 51.4409L58.3076 52.0292Z" fill="#C5C9F7" stroke="#F3D55B" stroke-width="1e-05"/>
<mask id="path-11-inside-2" fill="white">
<path fill-rule="evenodd" clip-rule="evenodd" d="M55.1679 33.3145V48.42C55.1679 48.6615 55.1074 48.873 55.0169 49.0845L51.9959 55.1265C51.7239 55.64 51.2104 55.9725 50.6364 55.9725H40.0629V28.783H47.6154C48.0079 28.783 48.4009 28.934 48.6724 29.2365L51.2709 31.804H53.6574C54.5034 31.804 55.1679 32.4685 55.1679 33.3145Z"/>
</mask>
<path fill-rule="evenodd" clip-rule="evenodd" d="M55.1679 33.3145V48.42C55.1679 48.6615 55.1074 48.873 55.0169 49.0845L51.9959 55.1265C51.7239 55.64 51.2104 55.9725 50.6364 55.9725H40.0629V28.783H47.6154C48.0079 28.783 48.4009 28.934 48.6724 29.2365L51.2709 31.804H53.6574C54.5034 31.804 55.1679 32.4685 55.1679 33.3145Z" fill="#C5C9F7"/>
<path d="M55.0169 49.0845L55.017 49.0845L55.0169 49.0845ZM51.9959 55.1265L51.996 55.1265L51.9959 55.1265ZM48.6724 29.2365L48.6724 29.2365V29.2365L48.6724 29.2365ZM51.2709 31.804L51.2709 31.804H51.2709V31.804ZM55.1679 33.3145V48.42H55.168V33.3145H55.1679ZM55.1679 48.42C55.1679 48.6615 55.1074 48.873 55.0169 49.0845L55.017 49.0845C55.1075 48.873 55.168 48.6615 55.168 48.42H55.1679ZM55.0169 49.0845L51.9959 55.1265L51.996 55.1265L55.017 49.0845L55.0169 49.0845ZM51.9959 55.1265C51.7239 55.64 51.2104 55.9725 50.6364 55.9725V55.9725C51.2104 55.9725 51.724 55.64 51.996 55.1265L51.9959 55.1265ZM50.6364 55.9725H40.0629V55.9725H50.6364V55.9725ZM40.063 55.9725V28.783H40.0629V55.9725H40.063ZM40.0629 28.783H47.6154V28.7829H40.0629V28.783ZM47.6154 28.783C48.0079 28.783 48.4009 28.934 48.6724 29.2365L48.6725 29.2365C48.4009 28.9339 48.0079 28.7829 47.6154 28.7829V28.783ZM48.6724 29.2365L51.2709 31.804L51.271 31.804L48.6725 29.2365L48.6724 29.2365ZM51.2709 31.804H53.6574V31.8039H51.2709V31.804ZM53.6574 31.804C54.5034 31.804 55.1679 32.4685 55.1679 33.3145H55.168C55.168 32.4685 54.5035 31.8039 53.6574 31.8039V31.804Z" fill="#F3D55B" mask="url(#path-11-inside-2)"/>
<mask id="path-13-inside-3" fill="white">
<path fill-rule="evenodd" clip-rule="evenodd" d="M45.954 43.0426L42.933 49.0846C42.54 49.8396 41.664 50.1421 40.909 49.7796C40.365 49.5076 40.063 48.9636 40.063 48.4201C40.063 48.1781 40.1235 47.9666 40.214 47.7556L42.1475 43.8886H38.552C37.4345 43.8886 36.7095 42.7101 37.193 41.7136L40.214 35.6711C40.6065 34.9161 41.513 34.6136 42.238 34.9761C42.993 35.3691 43.2955 36.2756 42.9325 37.0001L40.9995 40.8676H44.5945C45.712 40.8676 46.437 42.0456 45.954 43.0426Z"/>
</mask>
<path fill-rule="evenodd" clip-rule="evenodd" d="M45.954 43.0426L42.933 49.0846C42.54 49.8396 41.664 50.1421 40.909 49.7796C40.365 49.5076 40.063 48.9636 40.063 48.4201C40.063 48.1781 40.1235 47.9666 40.214 47.7556L42.1475 43.8886H38.552C37.4345 43.8886 36.7095 42.7101 37.193 41.7136L40.214 35.6711C40.6065 34.9161 41.513 34.6136 42.238 34.9761C42.993 35.3691 43.2955 36.2756 42.9325 37.0001L40.9995 40.8676H44.5945C45.712 40.8676 46.437 42.0456 45.954 43.0426Z" fill="#FEA832"/>
<path d="M45.954 43.0426L45.954 43.0426L45.954 43.0426ZM42.933 49.0846L42.933 49.0846L42.933 49.0846ZM40.909 49.7796L40.909 49.7796L40.909 49.7796ZM40.214 47.7556L40.214 47.7556L40.214 47.7556L40.214 47.7556ZM42.1475 43.8886L42.1475 43.8886H42.1475V43.8886ZM37.193 41.7136L37.193 41.7136L37.193 41.7136L37.193 41.7136ZM40.214 35.6711L40.214 35.6711V35.6711L40.214 35.6711ZM42.238 34.9761L42.238 34.9761V34.9761L42.238 34.9761ZM42.9325 37.0001L42.9325 37.0001L42.9325 37.0001ZM40.9995 40.8676L40.9995 40.8676H40.9995V40.8676ZM45.954 43.0426L42.933 49.0846L42.933 49.0846L45.954 43.0426L45.954 43.0426ZM42.933 49.0846C42.54 49.8396 41.664 50.1421 40.909 49.7796L40.909 49.7796C41.664 50.1421 42.54 49.8396 42.933 49.0846L42.933 49.0846ZM40.909 49.7796C40.365 49.5076 40.063 48.9636 40.063 48.4201H40.063C40.063 48.9636 40.365 49.5076 40.909 49.7796L40.909 49.7796ZM40.063 48.4201C40.063 48.1781 40.1235 47.9666 40.214 47.7556L40.214 47.7556C40.1235 47.9666 40.063 48.1781 40.063 48.4201H40.063ZM40.214 47.7556L42.1475 43.8886L42.1475 43.8886L40.214 47.7556L40.214 47.7556ZM42.1475 43.8886H38.552V43.8886H42.1475V43.8886ZM38.552 43.8886C37.4345 43.8886 36.7095 42.7101 37.193 41.7136L37.193 41.7136C36.7095 42.7101 37.4345 43.8886 38.552 43.8886V43.8886ZM37.193 41.7136L40.214 35.6711L40.214 35.6711L37.193 41.7136L37.193 41.7136ZM40.214 35.6711C40.6065 34.9161 41.513 34.6136 42.238 34.9761L42.238 34.9761C41.513 34.6136 40.6065 34.9161 40.214 35.6711L40.214 35.6711ZM42.238 34.9761C42.993 35.3691 43.2955 36.2756 42.9325 37.0001L42.9325 37.0001C43.2955 36.2756 42.993 35.3691 42.238 34.9761L42.238 34.9761ZM42.9325 37.0001L40.9995 40.8676L40.9995 40.8676L42.9325 37.0001L42.9325 37.0001ZM40.9995 40.8676H44.5945V40.8676H40.9995V40.8676ZM44.5945 40.8676C45.712 40.8676 46.437 42.0456 45.954 43.0426L45.954 43.0426C46.437 42.0456 45.712 40.8676 44.5945 40.8676V40.8676Z" fill="#F3D55B" mask="url(#path-13-inside-3)"/>
<mask id="path-15-inside-4" fill="white">
<path fill-rule="evenodd" clip-rule="evenodd" d="M45.9539 43.0426L42.9329 49.0846C42.5399 49.8396 41.6639 50.1421 40.9089 49.7796C40.3649 49.5076 40.0629 48.9636 40.0629 48.4201C40.0629 48.1781 40.1234 47.9666 40.2139 47.7556L42.1474 43.8886H40.0629V35.9731L40.2139 35.6711C40.6064 34.9161 41.5129 34.6136 42.2379 34.9761C42.9929 35.3691 43.2954 36.2756 42.9329 37.0001L40.9994 40.8676H44.5944C45.7119 40.8676 46.4369 42.0456 45.9539 43.0426Z"/>
</mask>
<path fill-rule="evenodd" clip-rule="evenodd" d="M45.9539 43.0426L42.9329 49.0846C42.5399 49.8396 41.6639 50.1421 40.9089 49.7796C40.3649 49.5076 40.0629 48.9636 40.0629 48.4201C40.0629 48.1781 40.1234 47.9666 40.2139 47.7556L42.1474 43.8886H40.0629V35.9731L40.2139 35.6711C40.6064 34.9161 41.5129 34.6136 42.2379 34.9761C42.9929 35.3691 43.2954 36.2756 42.9329 37.0001L40.9994 40.8676H44.5944C45.7119 40.8676 46.4369 42.0456 45.9539 43.0426Z" fill="#FE9923"/>
<path d="M45.9539 43.0426L45.954 43.0426L45.9539 43.0426ZM42.9329 49.0846L42.933 49.0846H42.933L42.9329 49.0846ZM40.9089 49.7796L40.9089 49.7796H40.9089L40.9089 49.7796ZM40.2139 47.7556L40.2139 47.7556L40.2139 47.7556L40.2139 47.7556ZM42.1474 43.8886L42.1474 43.8886H42.1474V43.8886ZM40.0629 35.9731L40.0629 35.9731V35.9731H40.0629ZM40.2139 35.6711L40.2139 35.6711L40.2139 35.6711L40.2139 35.6711ZM42.2379 34.9761L42.2379 34.9761V34.9761L42.2379 34.9761ZM42.9329 37.0001L42.9329 37.0001L42.9329 37.0001ZM40.9994 40.8676L40.9995 40.8676H40.9994V40.8676ZM45.9539 43.0426L42.9329 49.0846L42.933 49.0846L45.954 43.0426L45.9539 43.0426ZM42.9329 49.0846C42.5399 49.8396 41.6639 50.1421 40.9089 49.7796L40.9089 49.7796C41.6639 50.1421 42.5399 49.8396 42.933 49.0846L42.9329 49.0846ZM40.9089 49.7796C40.365 49.5076 40.063 48.9636 40.063 48.4201H40.0629C40.0629 48.9636 40.3649 49.5076 40.9089 49.7796L40.9089 49.7796ZM40.063 48.4201C40.063 48.1781 40.1235 47.9666 40.214 47.7556L40.2139 47.7556C40.1234 47.9666 40.0629 48.1781 40.0629 48.4201H40.063ZM40.214 47.7556L42.1475 43.8886L42.1474 43.8886L40.2139 47.7556L40.214 47.7556ZM42.1474 43.8886H40.0629V43.8886H42.1474V43.8886ZM40.063 43.8886V35.9731H40.0629V43.8886H40.063ZM40.063 35.9731L40.214 35.6711L40.2139 35.6711L40.0629 35.9731L40.063 35.9731ZM40.214 35.6711C40.6064 34.9161 41.5129 34.6136 42.2379 34.9761L42.2379 34.9761C41.5129 34.6136 40.6064 34.9161 40.2139 35.6711L40.214 35.6711ZM42.2379 34.9761C42.9929 35.3691 43.2954 36.2756 42.9329 37.0001L42.933 37.0001C43.2955 36.2756 42.993 35.3691 42.2379 34.9761L42.2379 34.9761ZM42.9329 37.0001L40.9994 40.8676L40.9995 40.8676L42.933 37.0001L42.9329 37.0001ZM40.9994 40.8676H44.5944V40.8676H40.9994V40.8676ZM44.5944 40.8676C45.7119 40.8676 46.4369 42.0456 45.9539 43.0426L45.954 43.0426C46.437 42.0456 45.7119 40.8676 44.5944 40.8676V40.8676Z" fill="#F3D55B" mask="url(#path-15-inside-4)"/>
<path d="M49.126 24.2516C49.126 25.0976 48.4615 25.7621 47.6155 25.7621L32.51 25.7621C31.664 25.7621 30.9995 25.0976 30.9995 24.2516C30.9995 23.4056 31.664 22.7411 32.51 22.7411H47.6155C47.7477 22.7411 47.8755 22.7573 47.9969 22.7879C48.4586 22.9042 48.8296 23.2282 49.009 23.6587C49.0467 23.7493 49.076 23.8447 49.0958 23.9438C49.1156 24.0429 49.126 24.1458 49.126 24.2516Z" fill="#E1E4FB" stroke="#F3D55B" stroke-width="1e-05"/>
<path d="M47.6154 25.7621H40.0629V22.7411H47.6154C47.9295 22.7411 48.2185 22.8327 48.4578 22.9911C48.4603 22.9927 48.4627 22.9943 48.4652 22.9959C48.8664 23.265 49.1259 23.7228 49.1259 24.2516C49.1259 24.8861 48.7522 25.4185 48.2084 25.645C48.0271 25.7206 47.8269 25.7621 47.6154 25.7621Z" fill="#C5C9F7" stroke="#F3D55B" stroke-width="1e-05"/>
</svg>
