<svg width="85" height="85" viewBox="0 0 85 85" fill="none" xmlns="http://www.w3.org/2000/svg">
<path fill-rule="evenodd" clip-rule="evenodd" d="M32.555 52.374L61.6824 23.9173C62.4818 23.1365 63.7152 24.2003 63.0594 25.106L46.308 48.237L43.6887 46.6548L34.9218 55.0953L32.555 52.374Z" fill="#D1D3D4"/>
<path fill-rule="evenodd" clip-rule="evenodd" d="M34.9214 55.0953L36.0413 54.0175C35.4361 52.9567 34.5997 52.0455 33.5992 51.3536L32.555 52.374L34.9214 55.0953Z" fill="#BCBEC0"/>
<path fill-rule="evenodd" clip-rule="evenodd" d="M28.9914 51.3186C25.3789 51.3186 22.4498 54.2477 22.4498 57.8606C22.4498 59.4901 23.0456 60.9806 24.0312 62.1259C25.231 63.5199 27.0083 64.4022 28.9914 64.4022C32.6047 64.4022 35.5334 61.4736 35.5334 57.8606C35.5334 54.2477 32.6047 51.3186 28.9914 51.3186ZM28.9914 60.7834C27.3772 60.7834 26.0687 59.4748 26.0687 57.8606C26.0687 56.2461 27.3772 54.9375 28.9914 54.9375C30.606 54.9375 31.9145 56.2461 31.9145 57.8606C31.9145 59.4748 30.606 60.7834 28.9914 60.7834Z" fill="#5A8EE8"/>
<path fill-rule="evenodd" clip-rule="evenodd" d="M54.7209 52.374L25.5939 23.9173C24.7945 23.1365 23.5612 24.2003 24.2165 25.106L41.3959 48.8622L43.7198 46.7823L52.3545 55.0953L53.5942 53.6698L54.7209 52.374Z" fill="#E6E7E8"/>
<path fill-rule="evenodd" clip-rule="evenodd" d="M52.3545 55.0953L54.7209 52.374L53.6767 51.3536C52.6762 52.0455 51.8398 52.9563 51.2346 54.0171L52.3545 55.0953Z" fill="#D1D3D4"/>
<path fill-rule="evenodd" clip-rule="evenodd" d="M70.4837 60.1055C70.1093 59.7834 69.5445 59.825 69.2219 60.1995L69.1513 60.2811C67.799 61.8493 65.609 62.3041 63.7976 61.4035L63.7887 61.3963C64.4449 60.3767 64.8265 59.1633 64.8265 57.8607C64.8265 57.5203 64.7998 57.1862 64.7496 56.8602C64.7488 56.8543 64.7488 56.8488 64.7479 56.8432C64.2592 53.7135 61.5515 51.3191 58.2845 51.3191C55.0167 51.3191 52.3082 53.7152 51.8211 56.8466C51.8203 56.8517 51.8198 56.8564 51.8194 56.8615C51.7697 57.1875 51.7429 57.5211 51.7429 57.8607C51.7429 61.4736 54.6716 64.4027 58.2845 64.4027C59.9497 64.4027 61.4678 63.7788 62.6229 62.7546L62.7406 62.851C62.7878 62.8893 62.8384 62.9229 62.8924 62.9509C63.7997 63.4244 64.7772 63.653 65.7471 63.653C67.5206 63.653 69.2682 62.8872 70.5071 61.4498L70.5776 61.3678C70.8998 60.9934 70.8581 60.4285 70.4837 60.1055ZM58.2845 54.9375C59.8987 54.9375 61.2072 56.2461 61.2072 57.8607C61.2072 59.4748 59.8987 60.7834 58.2845 60.7834C56.6699 60.7834 55.3614 59.4748 55.3614 57.8607C55.3614 56.2461 56.6699 54.9375 58.2845 54.9375Z" fill="#5A8EE8"/>
<path fill-rule="evenodd" clip-rule="evenodd" d="M28.9914 62.3742C27.0083 62.3742 25.231 61.4919 24.0312 60.0979C23.2535 59.1944 22.7201 58.0753 22.5288 56.8433C22.477 57.1748 22.4498 57.5143 22.4498 57.8607C22.4498 59.4902 23.0456 60.9806 24.0312 62.126C25.231 63.52 27.0083 64.4023 28.9914 64.4023C32.6047 64.4023 35.5334 61.4736 35.5334 57.8607C35.5334 57.5156 35.5062 57.1773 35.4548 56.8467C34.9677 59.9781 32.2596 62.3742 28.9914 62.3742Z" fill="#4A80CE"/>
<path fill-rule="evenodd" clip-rule="evenodd" d="M70.4837 60.1056C70.1093 59.7834 69.5445 59.8251 69.2219 60.1995L69.1513 60.2811C67.799 61.8493 65.609 62.3041 63.7976 61.4035L63.7887 61.3963C64.4449 60.3767 64.8265 59.1633 64.8265 57.8607C64.8265 57.5143 64.7993 57.1748 64.7475 56.8433C64.5562 58.0753 64.0224 59.1944 63.2451 60.0979C62.0453 61.4919 60.268 62.3742 58.2849 62.3742C55.0167 62.3742 52.309 59.9781 51.8215 56.8467C51.7701 57.1773 51.7429 57.516 51.7429 57.8607C51.7429 61.4736 54.672 64.4027 58.2849 64.4027C59.9497 64.4027 61.4682 63.7788 62.6229 62.7546L62.7411 62.8506C62.7878 62.8893 62.8388 62.9225 62.8924 62.9505C63.7997 63.424 64.7772 63.653 65.7475 63.653C67.521 63.653 69.2682 62.8868 70.5075 61.4498L70.5781 61.3678C70.8998 60.9934 70.8581 60.4286 70.4837 60.1056Z" fill="#4A80CE"/>
<path d="M42.4166 45.3736C42.9108 45.3736 43.3114 44.973 43.3114 44.4789C43.3114 43.9847 42.9108 43.5841 42.4166 43.5841C41.9225 43.5841 41.5219 43.9847 41.5219 44.4789C41.5219 44.973 41.9225 45.3736 42.4166 45.3736Z" fill="#BCBEC0"/>
<circle cx="45" cy="45" r="39" stroke="#C4C4C4" stroke-width="2"/>
</svg>
