<svg width="80" height="80" viewBox="0 0 80 80" fill="none" xmlns="http://www.w3.org/2000/svg">
<circle cx="40" cy="40" r="39" fill="white" stroke="#C4C4C4" stroke-width="2"/>
<path fill-rule="evenodd" clip-rule="evenodd" d="M30.4926 64.5319C30.4472 64.49 29.3672 63.4914 28.6408 61.8605C27.9585 60.3287 27.4644 57.9323 28.9826 55.2169C30.8631 51.8528 29.9594 50.0523 29.9499 50.035C29.744 49.6682 29.8744 49.2037 30.2403 48.9978C30.6063 48.7914 31.0699 48.9219 31.2758 49.2887C31.3322 49.3896 32.6326 51.8055 30.309 55.9614C29.3376 57.6991 29.2435 59.475 30.0294 61.2396C30.6276 62.5837 31.5085 63.3978 31.5172 63.406C31.8276 63.6891 31.8499 64.171 31.5667 64.4823C31.2831 64.7937 30.8022 64.8146 30.4926 64.5319Z" fill="#BAD8E8"/>
<path fill-rule="evenodd" clip-rule="evenodd" d="M47.1789 64.1277C46.8961 63.8173 46.9184 63.3368 47.2284 63.0536C47.3875 62.9073 51.1266 59.3814 48.5684 54.8159C46.0393 50.3032 47.4471 47.6932 47.5084 47.5845L48.8339 48.3291L48.8398 48.3191C48.7971 48.4009 47.8189 50.3677 49.8948 54.0727C51.5452 57.0182 51.008 59.6168 50.2666 61.2782C49.4761 63.0495 48.3025 64.1318 48.253 64.1773C47.943 64.46 47.4621 64.4382 47.1789 64.1277Z" fill="#BAD8E8"/>
<path fill-rule="evenodd" clip-rule="evenodd" d="M58.4995 38.2045C56.3877 42.1713 52.5523 44.8231 48.1713 44.8231C41.5113 44.8231 36.1118 38.694 36.1118 31.1336C36.1123 23.5731 41.5113 17.444 48.1713 17.444C56.6113 17.444 62.4418 27.0595 59.4468 35.9981L58.4995 38.2045Z" fill="#17DDC0"/>
<path fill-rule="evenodd" clip-rule="evenodd" d="M58.8618 37.361C51.6204 44.0878 40.6054 38.2751 40.6054 27.5332C40.6054 23.8428 41.9936 20.5205 44.2091 18.2014C39.4954 20.0619 36.1118 25.1491 36.1118 31.1337C36.1118 38.1373 40.745 43.9114 46.7213 44.7246L46.1882 47.3737C46.0577 48.021 46.3382 48.3119 46.8627 48.3119H49.7854C50.2013 48.3119 50.475 48.0337 50.3627 47.441L49.8423 44.6914C53.8541 44.0596 57.2159 41.1937 58.8618 37.361Z" fill="#0DBAA1"/>
<path fill-rule="evenodd" clip-rule="evenodd" d="M37.6809 24.3778C30.5609 17.7655 19.73 23.4791 19.73 34.0423C19.73 40.935 24.6527 46.5232 30.7245 46.5232C34.5168 46.5232 37.8604 44.3432 39.8368 41.0273C35.7518 36.5914 35.0154 29.7005 37.6809 24.3778Z" fill="#FFCA54"/>
<path fill-rule="evenodd" clip-rule="evenodd" d="M38.0872 43.3103C30.8481 44.5076 24.3536 38.9185 24.3536 31.6753C24.3536 27.3994 26.6291 23.6549 30.0354 21.5867C24.2845 21.9903 19.73 27.4121 19.73 34.0421C19.73 40.4262 23.9527 45.6903 29.4004 46.4326L28.8827 49.0062C28.855 49.2548 28.9018 49.6944 29.58 49.6944H32.1313C32.5527 49.6944 32.8231 49.4317 32.7222 48.8998C32.7222 48.8998 32.3391 46.8758 32.2495 46.4035C34.4786 46.0517 36.4941 44.9421 38.0872 43.3103Z" fill="#F99830"/>
</svg>
