<svg width="80" height="80" viewBox="0 0 80 80" fill="none" xmlns="http://www.w3.org/2000/svg">
<circle cx="40" cy="40" r="39" fill="white" stroke="#C4C4C4" stroke-width="2"/>
<path fill-rule="evenodd" clip-rule="evenodd" d="M35.1137 47.3104C33.9081 48.4408 34.0279 51.0242 35.4131 53.5998C36.2219 55.2096 38.2808 57.1789 41.0291 58.9908C39.7883 59.4167 38.5132 59.7325 37.2176 59.9342C37.2102 59.9264 37.1951 59.9194 37.1877 59.9043C35.3804 58.5915 33.87 56.913 32.7552 54.9776C30.6885 51.1211 30.801 47.2429 33.0694 45.1316C35.3366 43.2093 38.6237 43.0853 41.0291 44.8322V48.3884C40.5619 48.3986 40.1177 48.1879 39.8309 47.8193C39.2721 47.1096 38.4408 46.6665 37.5396 46.599C37.4275 46.5912 37.315 46.5843 37.2102 46.5843C36.4469 46.5651 35.7019 46.8232 35.1137 47.3104Z" fill="#67B9CC"/>
<path fill-rule="evenodd" clip-rule="evenodd" d="M49.2875 55.0149C48.165 56.9474 46.6501 58.6231 44.8399 59.9342L41.2984 62.1277C41.2088 62.1654 41.1188 62.1879 41.0292 62.2181C40.3714 62.4141 39.7009 62.5642 39.0222 62.6669C37.4628 62.9504 35.8824 63.103 34.2976 63.1239C30.2022 63.1239 27.2445 61.9481 25.4625 59.6196C21.7786 54.7903 24.4966 46.4268 26.376 42.0316C26.7532 42.1068 27.1369 42.1445 27.5214 42.1441H29.5882C27.6785 46.3143 25.0207 54.1239 27.8434 57.8077C29.573 60.0692 33.1669 60.3834 36.746 59.9866H36.7608C36.9105 59.9718 37.068 59.9567 37.2177 59.9342C38.5133 59.7325 39.7884 59.4167 41.0292 58.9908C43.7767 57.179 45.836 55.217 46.6223 53.6375C48.0296 51.0242 48.1494 48.4408 46.9438 47.3105C46.2639 46.757 45.3897 46.5005 44.5179 46.5991C43.6171 46.6666 42.7858 47.1096 42.2266 47.8194C41.9398 48.188 41.4956 48.3986 41.0292 48.3884V44.8322C43.4338 43.0854 46.7213 43.2093 48.9881 45.1316C51.2565 47.243 51.369 51.1211 49.2875 55.0149Z" fill="#2FA8CC"/>
<path fill-rule="evenodd" clip-rule="evenodd" d="M38.2134 23.1331L36.0947 37.0676C35.684 39.9811 33.1894 42.1468 30.2468 42.144H27.5214C27.1368 42.1444 26.7531 42.1068 26.3759 42.0319C23.9116 41.5459 22.0248 39.554 21.6738 37.0676L19.5548 23.1405C19.4275 22.2777 19.6787 21.4018 20.2437 20.7371C20.8013 20.0789 21.6198 19.6984 22.4826 19.6964H25.4473V22.6913H22.4826L24.6013 36.6184C24.8063 38.0735 26.0519 39.156 27.5214 39.1564H30.2468C31.7166 39.156 32.9619 38.0735 33.1669 36.6184L35.2859 22.6913H32.2534V19.6964H35.2859C36.1487 19.6984 36.9669 20.0789 37.5245 20.7371C38.0886 21.3994 38.3398 22.2724 38.2134 23.1331Z" fill="#9FC9D3"/>
<path fill-rule="evenodd" clip-rule="evenodd" d="M56.595 59.6196C54.8135 61.9485 51.8557 63.1238 47.7603 63.1238C45.4956 63.0891 43.2411 62.8105 41.0361 62.293L41.2983 62.1277L44.8398 59.9342C48.576 60.4058 52.417 60.1665 54.2141 57.8077C57.0446 54.094 54.379 46.2697 52.4624 42.1138L55.2401 41.0133C57.0446 44.9966 60.6009 54.3787 56.595 59.62V59.6196Z" fill="#67B9CC"/>
<path fill-rule="evenodd" clip-rule="evenodd" d="M57.7107 36.1687C57.7107 39.4771 55.0291 42.1587 51.7208 42.1587C48.4129 42.1587 45.7309 39.4771 45.7309 36.1687C45.7309 32.8604 48.4129 30.1788 51.7208 30.1788C55.0291 30.1788 57.7107 32.8604 57.7107 36.1687Z" fill="#3B97D3"/>
<path fill-rule="evenodd" clip-rule="evenodd" d="M54.7161 36.1689C54.7161 37.8228 53.3751 39.1638 51.7207 39.1638C50.0668 39.1638 48.7258 37.8228 48.7258 36.1689C48.7258 34.5149 50.0668 33.1743 51.7207 33.1743C53.3751 33.1743 54.7161 34.5149 54.7161 36.1689Z" fill="#9FC9D3"/>
<path fill-rule="evenodd" clip-rule="evenodd" d="M24.0171 19.6964H25.5148C26.3416 19.6964 27.0125 20.3669 27.0125 21.194C27.0125 22.0212 26.3416 22.6913 25.5148 22.6913H24.0171V19.6964Z" fill="#F3D55B"/>
<path fill-rule="evenodd" clip-rule="evenodd" d="M32.2534 19.6964H33.7511V22.6913H32.2534C31.4266 22.6913 30.7561 22.0212 30.7561 21.194C30.7561 20.3669 31.4266 19.6964 32.2534 19.6964Z" fill="#F3D55B"/>
</svg>
