<svg width="80" height="80" viewBox="0 0 80 80" fill="none" xmlns="http://www.w3.org/2000/svg">
<circle cx="40" cy="40" r="39" fill="white" stroke="#C4C4C4" stroke-width="2"/>
<path d="M28.7545 18.8314H27.2556V27.0754H28.7545V18.8314Z" fill="#75462E"/>
<path d="M34.7501 18.8314H33.2512V27.0754H34.7501V18.8314Z" fill="#75462E"/>
<path d="M28.7545 18.8314H27.2556V21.0798H28.7545V18.8314Z" fill="#5E3825"/>
<path d="M34.7501 18.8314H33.2512V21.0798H34.7501V18.8314Z" fill="#5E3825"/>
<path fill-rule="evenodd" clip-rule="evenodd" d="M26.5059 16.5829H35.4994C36.3274 16.5829 36.9984 17.2539 36.9984 18.0819C36.9984 18.9099 36.3274 19.5809 35.4994 19.5809H26.5059C25.6779 19.5809 25.0069 18.9099 25.0069 18.0819C25.0069 17.2539 25.6779 16.5829 26.5059 16.5829Z" fill="#4398D1"/>
<path fill-rule="evenodd" clip-rule="evenodd" d="M22.7589 26.3259H39.2469C40.9024 26.3259 42.2444 27.6679 42.2444 29.3239V53.3064C42.2444 54.9619 40.9024 56.3039 39.2469 56.3039H22.7589C21.1034 56.3039 19.7609 54.9619 19.7609 53.3064V29.3239C19.7609 27.6679 21.1034 26.3259 22.7589 26.3259Z" fill="#4398D1"/>
<path fill-rule="evenodd" clip-rule="evenodd" d="M40.0174 26.4385C36.8239 43.0795 25.9874 50.323 19.7609 53.169V53.3065C19.7609 54.962 21.1034 56.304 22.7589 56.304H39.2469C40.9024 56.304 42.2444 54.962 42.2444 53.3065V29.324C42.2424 27.968 41.3279 26.784 40.0174 26.4385Z" fill="#3E8CC7"/>
<path d="M22.3841 60.0515C23.4189 60.0515 24.2578 59.2126 24.2578 58.1778C24.2578 57.1431 23.4189 56.3042 22.3841 56.3042C21.3493 56.3042 20.5105 57.1431 20.5105 58.1778C20.5105 59.2126 21.3493 60.0515 22.3841 60.0515Z" fill="#3E8CC7"/>
<path d="M29.5039 30.0732H28.005V51.8074H29.5039V30.0732Z" fill="#126099"/>
<path d="M25.0071 30.0732H23.5082V51.8074H25.0071V30.0732Z" fill="#126099"/>
<path d="M34.0006 30.0732H32.5017V51.8074H34.0006V30.0732Z" fill="#126099"/>
<path d="M38.4972 30.0732H36.9983V51.8074H38.4972V30.0732Z" fill="#126099"/>
<path d="M39.6215 60.0513C40.6563 60.0513 41.4952 59.2124 41.4952 58.1776C41.4952 57.1428 40.6563 56.304 39.6215 56.304C38.5867 56.304 37.7479 57.1428 37.7479 58.1776C37.7479 59.2124 38.5867 60.0513 39.6215 60.0513Z" fill="#3E8CC7"/>
<path fill-rule="evenodd" clip-rule="evenodd" d="M63.2295 38.317V53.3065C63.2295 54.962 61.887 56.304 60.2315 56.304H34.0005C32.345 56.304 31.003 54.962 31.003 53.3065V38.317C31.003 36.6615 32.345 35.3195 34.0005 35.3195H60.2315C61.887 35.3195 63.2295 36.6615 63.2295 38.317Z" fill="#DE4C3C"/>
<path fill-rule="evenodd" clip-rule="evenodd" d="M53.4864 35.3195V32.3215C53.4864 30.666 52.1444 29.324 50.4884 29.324H43.7434C42.0879 29.324 40.7459 30.666 40.7459 32.3215V35.3195H43.7434V32.3215H50.4884V35.3195H53.4864Z" fill="#75462E"/>
<path d="M33.6259 60.0513C34.6607 60.0513 35.4995 59.2124 35.4995 58.1776C35.4995 57.1428 34.6607 56.304 33.6259 56.304C32.5911 56.304 31.7522 57.1428 31.7522 58.1776C31.7522 59.2124 32.5911 60.0513 33.6259 60.0513Z" fill="#DE4C3C"/>
<path d="M60.6063 60.0513C61.6411 60.0513 62.4799 59.2124 62.4799 58.1776C62.4799 57.1428 61.6411 56.304 60.6063 56.304C59.5715 56.304 58.7327 57.1428 58.7327 58.1776C58.7327 59.2124 59.5715 60.0513 60.6063 60.0513Z" fill="#DE4C3C"/>
<path fill-rule="evenodd" clip-rule="evenodd" d="M26.5059 36.8184L19.7609 39.8159V35.3194L25.0069 33.0709L26.5059 36.8184Z" fill="#87CED9"/>
<path fill-rule="evenodd" clip-rule="evenodd" d="M62.0114 35.9188C56.6044 46.6808 41.4859 53.4743 33.9254 56.2963C33.9509 56.2963 33.9749 56.3038 34.0004 56.3038H60.2314C61.8869 56.3038 63.2294 54.9618 63.2294 53.3063V38.3168C63.2274 37.3698 62.7754 36.4793 62.0114 35.9188Z" fill="#CF4737"/>
<path fill-rule="evenodd" clip-rule="evenodd" d="M42.2445 43.5634L45.992 38.3169L49.739 43.5634H42.2445Z" fill="#3E8CC7"/>
<path d="M37.7479 35.3195H34.7501V56.3042H37.7479V35.3195Z" fill="#75462E"/>
<path d="M59.4822 35.3195H56.4844V56.3042H59.4822V35.3195Z" fill="#75462E"/>
<path d="M57.4608 46.0569C55.4947 45.4133 53.4834 46.1666 52.9686 47.7393C52.4538 49.3121 53.6303 51.1088 55.5965 51.7524C57.5626 52.396 59.5739 51.6428 60.0887 50.07C60.6035 48.4972 59.427 46.7005 57.4608 46.0569Z" fill="#87CED9"/>
<path fill-rule="evenodd" clip-rule="evenodd" d="M31.003 42.0645V45.812L38.4975 50.3085L39.9965 47.3105L31.003 42.0645Z" fill="#FDB62F"/>
<path fill-rule="evenodd" clip-rule="evenodd" d="M58.9394 46.8484C57.5539 48.4744 55.8434 49.7929 53.9179 50.7189C54.3999 51.1829 54.9809 51.5324 55.6169 51.7399C57.5844 52.3834 59.5959 51.6304 60.1139 50.0564C60.4244 48.8469 59.9574 47.5714 58.9394 46.8484Z" fill="#71C4D1"/>
</svg>
