<svg width="606" height="232" viewBox="0 0 606 232" fill="none" xmlns="http://www.w3.org/2000/svg">
<path d="M79.6464 197.468C73.6115 202.16 65.464 204.799 57.0148 204.799C40.7199 204.799 31.9688 195.415 31.9688 178.699V94.5306H77.8361V71.3627H31.9688V37.3434H3V179.872C3 211.252 21.4074 228.554 53.6953 228.554C66.671 228.554 79.9482 225.035 88.6994 217.703L79.6464 197.468Z" fill="#32D25F"/>
<path d="M117.894 41.4495C129.361 41.4495 137.508 33.238 137.508 22.6804C137.508 12.7094 129.059 4.7912 117.894 4.7912C106.729 4.7912 98.2798 13.0024 98.2798 23.267C98.2798 33.5313 106.729 41.4495 117.894 41.4495ZM103.41 226.795H132.378V71.3631H103.41V226.795Z" fill="#32D25F"/>
<path d="M367.373 69.8962C340.215 69.8962 317.885 81.0401 305.814 98.6363C295.253 79.2808 274.733 69.8962 250.291 69.8962C226.15 69.8962 206.536 78.6941 195.069 94.5305V71.3626H167.308V226.795H196.276V146.732C196.276 113.006 215.287 95.1172 244.256 95.1172C270.509 95.1172 285.597 110.074 285.597 140.574V226.795H314.566V146.732C314.566 113.006 333.576 95.1172 362.545 95.1172C388.798 95.1172 403.886 110.074 403.886 140.574V226.795H432.854V137.348C432.854 91.5978 406.3 69.8962 367.373 69.8962Z" fill="#32D25F"/>
<path d="M530.88 203.92C504.023 203.92 484.108 191.602 475.96 170.194L603 146.146C602.094 99.8093 567.996 69.8962 524.241 69.8962C477.77 69.8962 443.974 103.035 443.974 149.078C443.974 195.415 478.374 228.554 529.974 228.554C556.529 228.554 578.558 219.756 592.74 203.333L577.049 185.15C565.28 197.761 549.589 203.92 530.88 203.92ZM524.241 93.6508C550.192 93.6508 569.203 109.487 574.333 131.776L472.037 150.545V147.612C472.037 115.059 493.763 93.6508 524.241 93.6508Z" fill="#32D25F"/>
<path d="M79.6464 197.468C73.6115 202.16 65.464 204.799 57.0148 204.799C40.7199 204.799 31.9688 195.415 31.9688 178.699V94.5306H77.8361V71.3627H31.9688V37.3434H3V179.872C3 211.252 21.4074 228.554 53.6953 228.554C66.671 228.554 79.9482 225.035 88.6994 217.703L79.6464 197.468Z" stroke="#32D25F" stroke-width="5"/>
<path d="M117.894 41.4495C129.361 41.4495 137.508 33.238 137.508 22.6804C137.508 12.7094 129.059 4.7912 117.894 4.7912C106.729 4.7912 98.2798 13.0024 98.2798 23.267C98.2798 33.5313 106.729 41.4495 117.894 41.4495ZM103.41 226.795H132.378V71.3631H103.41V226.795Z" stroke="#32D25F" stroke-width="5"/>
<path d="M367.373 69.8962C340.215 69.8962 317.885 81.0401 305.814 98.6363C295.253 79.2808 274.733 69.8962 250.291 69.8962C226.15 69.8962 206.536 78.6941 195.069 94.5305V71.3626H167.308V226.795H196.276V146.732C196.276 113.006 215.287 95.1172 244.256 95.1172C270.509 95.1172 285.597 110.074 285.597 140.574V226.795H314.566V146.732C314.566 113.006 333.576 95.1172 362.545 95.1172C388.798 95.1172 403.886 110.074 403.886 140.574V226.795H432.854V137.348C432.854 91.5978 406.3 69.8962 367.373 69.8962Z" stroke="#32D25F" stroke-width="5"/>
<path d="M530.88 203.92C504.023 203.92 484.108 191.602 475.96 170.194L603 146.146C602.094 99.8093 567.996 69.8962 524.241 69.8962C477.77 69.8962 443.974 103.035 443.974 149.078C443.974 195.415 478.374 228.554 529.974 228.554C556.529 228.554 578.558 219.756 592.74 203.333L577.049 185.15C565.28 197.761 549.589 203.92 530.88 203.92ZM524.241 93.6508C550.192 93.6508 569.203 109.487 574.333 131.776L472.037 150.545V147.612C472.037 115.059 493.763 93.6508 524.241 93.6508Z" stroke="#32D25F" stroke-width="5"/>
<path fill-rule="evenodd" clip-rule="evenodd" d="M117.894 41.4495C129.361 41.4495 137.508 33.238 137.508 22.6804C137.508 12.7094 129.059 4.7912 117.894 4.7912C106.729 4.7912 98.2798 13.0024 98.2798 23.267C98.2798 33.5313 106.729 41.4495 117.894 41.4495Z" fill="#32D25F"/>
<path d="M117.895 39.6583C123.07 39.6583 127.486 37.8399 130.613 34.8477C133.795 31.8024 135.666 27.5194 135.666 22.68C135.666 18.1788 133.751 14.1443 130.574 11.2467C127.403 8.35511 122.963 6.58177 117.895 6.58177C112.842 6.58177 108.414 8.41564 105.246 11.3993C102.051 14.4094 100.123 18.6015 100.123 23.2667C100.123 27.9033 102.028 32.0023 105.19 34.9333C108.362 37.8743 112.812 39.6583 117.895 39.6583ZM133.19 37.3943C129.39 41.0305 124.076 43.2401 117.895 43.2401C111.835 43.2401 106.495 41.0807 102.656 37.5215C98.7757 33.9246 96.438 28.9152 96.438 23.2667C96.438 17.6057 98.7871 12.5089 102.683 8.839C106.522 5.22285 111.851 3 117.895 3C123.932 3 129.257 5.14548 133.093 8.64415C136.998 12.2055 139.352 17.1584 139.352 22.68C139.352 28.4997 137.07 33.6811 133.19 37.3943Z" fill="#32D25F" stroke="#32D25F" stroke-width="5"/>
</svg>
